<svg width="2851" height="465" viewBox="0 0 2851 465" fill="none" xmlns="http://www.w3.org/2000/svg">
<g clip-path="url(#clip0_881_17)">
<path d="M1424.5 356.86V166.87H1476.93V189.28H1477.69C1488.24 172.55 1511.94 159.85 1534.45 159.85C1587.2 159.85 1610.5 201.72 1610.5 239.31V356.84H1559.1V246.59C1559.1 220.76 1538.44 205.99 1517.5 205.99C1498.56 205.99 1476.93 222.42 1476.93 249.9V356.84H1424.5V356.86Z" fill="#040000"/>
<path d="M1840.5 356.86V98.86H1892.93V189.57H1893.69C1904.24 172.87 1927.94 160.19 1950.45 160.19C2003.2 160.19 2026.5 201.99 2026.5 239.52V356.86H1975.1V246.8C1975.1 221.02 1954.44 206.27 1933.5 206.27C1914.56 206.27 1892.93 222.67 1892.93 250.1V356.86H1840.5Z" fill="#040000"/>
<path d="M1089.5 208.35C1116.25 208.35 1138 230.11 1138 256.85C1138 283.59 1116.25 305.35 1089.5 305.35C1062.75 305.35 1041 283.59 1041 256.85C1041 230.11 1062.75 208.35 1089.5 208.35ZM1089.5 156.85C1034.27 156.85 989.496 201.62 989.496 256.85C989.496 312.08 1034.27 356.85 1089.5 356.85C1144.73 356.85 1189.5 312.08 1189.5 256.85C1189.5 201.62 1144.73 156.85 1089.5 156.85Z" fill="#040000"/>
<path d="M1307.5 208.35C1334.25 208.35 1356 230.11 1356 256.85C1356 283.59 1334.25 305.35 1307.5 305.35C1280.75 305.35 1259 283.59 1259 256.85C1259 230.11 1280.75 208.35 1307.5 208.35ZM1307.5 156.85C1252.27 156.85 1207.5 201.62 1207.5 256.85C1207.5 312.08 1252.27 356.85 1307.5 356.85C1362.73 356.85 1407.5 312.08 1407.5 256.85C1407.5 201.62 1362.73 156.85 1307.5 156.85Z" fill="#040000"/>
<path d="M2143 208.35C2169.88 208.35 2191.75 230.11 2191.75 256.85C2191.75 283.59 2169.88 305.35 2143 305.35C2116.12 305.35 2094.25 283.59 2094.25 256.85C2094.25 230.11 2116.12 208.35 2143 208.35ZM2143 156.85C2087.49 156.85 2042.5 201.62 2042.5 256.85C2042.5 312.08 2087.49 356.85 2143 356.85C2198.51 356.85 2243.5 312.08 2243.5 256.85C2243.5 201.62 2198.51 156.85 2143 156.85Z" fill="#040000"/>
<path d="M2294.04 98.86C2292.8 98.86 2291.79 99.88 2291.79 101.11V165.92C2291.79 167.16 2290.78 168.17 2289.55 168.17H2256.74C2255.51 168.17 2254.5 169.19 2254.5 170.42V215.4C2254.5 216.64 2255.51 217.65 2256.74 217.65H2289.55C2290.79 217.65 2291.79 218.66 2291.79 219.9V354.64C2291.79 355.88 2292.81 356.88 2294.04 356.88H2338.96C2340.2 356.88 2341.21 355.86 2341.21 354.64V219.89C2341.21 218.65 2342.22 217.65 2343.45 217.65H2376.26C2377.49 217.65 2378.5 216.63 2378.5 215.4V170.42C2378.5 169.18 2377.49 168.17 2376.26 168.17H2343.45C2342.21 168.17 2341.21 167.16 2341.21 165.93V101.1C2341.21 99.86 2340.19 98.85 2338.96 98.85H2294.04V98.86Z" fill="#040000"/>
<path d="M2850.5 98.86H2801.5V356.86H2850.5V98.86Z" fill="#040000"/>
<path d="M968.496 95.86L968.416 95.92V95.86L823.996 200.55L679.576 95.86V95.92L679.496 95.86V356.86H731.176V197L823.996 264.29L916.816 197V356.85H968.496V95.86Z" fill="#040000"/>
<path d="M1789.28 250.71C1784.14 248.29 1778.7 246.54 1773.14 245.35C1763.39 243.25 1743.8 239.17 1733.09 237.79C1733.09 237.79 1711.35 235.05 1694.3 227.11C1694.3 227.11 1682.03 219.43 1694.56 210.95C1694.56 210.95 1716.35 197.31 1752.95 210.95C1752.95 210.95 1766.78 215.45 1784.09 230.02L1817.67 196.65C1817.67 196.65 1785.96 155.08 1724.93 157.99C1724.93 157.99 1700.63 157.78 1687.56 161.99C1666.59 168.74 1643.85 182.65 1639.66 210.16C1639.66 210.16 1628.2 255.34 1686.02 273C1686.02 273 1719.93 280.45 1734.06 280.45C1734.06 280.45 1785.18 285.44 1762.63 305C1762.63 305 1743.18 315.73 1704.54 305.24C1704.54 305.24 1679.6 292.64 1662.28 278.08L1627.5 315.02C1627.5 315.02 1664.62 357.84 1736.96 356.84C1736.96 356.84 1802.07 358.48 1816.28 317.37C1816.28 317.37 1836.25 272.84 1789.27 250.71H1789.28Z" fill="#040000"/>
<path d="M2644.5 95.86L2507.5 357.85H2565.56L2610.84 271.26L2633.94 314.91H2700.98L2723.44 357.86H2781.5L2644.5 95.86ZM2614.03 265.17L2644.5 206.9L2674.98 265.17H2614.03Z" fill="#040000"/>
<path fill-rule="evenodd" clip-rule="evenodd" d="M418.766 93.78C388.626 53.17 345.086 22.07 292.446 7.97001C239.806 -6.12999 186.536 -0.969994 140.136 19.13L418.766 93.78ZM40.7758 100.85C61.3758 70.84 88.5858 46.43 119.776 29.15L325.036 84.15C311.566 91.92 297.136 105.31 285.966 120.03L454.736 165.25C459.526 181.08 462.646 197.49 463.956 214.24L40.7758 100.85ZM456.686 292.45C454.306 301.35 451.436 309.99 448.116 318.34L2.44584 198.93C3.74584 190.03 5.58584 181.12 7.96584 172.22C13.5658 151.31 21.8458 131.84 32.3458 114.08L250.436 172.52C241.706 185 233.756 198.56 226.756 213.07L460.516 275.71C459.446 281.3 458.166 286.88 456.676 292.47L456.686 292.45ZM13.4858 310.23C2.67584 279.96 -1.93416 247.22 0.745843 213.95L206.426 269.06C204.946 273.74 203.556 278.48 202.266 283.29C199.646 293.08 197.506 302.85 195.846 312.55L417.946 372.06C407.606 385.79 395.826 398.23 382.896 409.21L13.4858 310.23ZM172.206 456.69C102.096 437.9 48.1158 388.98 20.4758 327.59L187.846 372.44C187.576 388.05 188.546 403.26 190.676 417.85L312.286 450.43C268.876 466.39 220.286 469.57 172.206 456.69Z" fill="#040000"/>
</g>
<defs>
<clipPath id="clip0_881_17">
<rect width="2850.5" height="464.66" fill="white"/>
</clipPath>
</defs>
</svg>
